<?xml version="1.0" encoding="utf-8"?>
<!-- Generator: Adobe Illustrator 19.0.1, SVG Export Plug-In . SVG Version: 6.00 Build 0)  -->
<svg version="1.1" id="Layer_1" xmlns="http://www.w3.org/2000/svg" xmlns:xlink="http://www.w3.org/1999/xlink" x="0px" y="0px"
	 viewBox="-198.6 324.4 60.2 194" style="enable-background:new -198.6 324.4 60.2 194;" xml:space="preserve">
<style type="text/css">
	.st0{fill:#F36A53;}
</style>
<g>
	<g>
		<path class="st0" d="M-138.4,515.3c0,0.8-0.3,1.6-0.9,2.2c-0.6,0.6-1.3,0.9-2.2,0.9c-0.8,0-1.5-0.3-2.1-0.8l-53.9-93.8l-0.2-0.2
			c-0.6-0.6-0.9-1.4-0.9-2.2s0.3-1.6,0.9-2.2l0.1-0.1l54-93.9c1.2-1.1,3.1-1.1,4.3,0.1c1.2,1.2,1.2,3.2,0,4.4l-51.4,91.7l51.2,91.5
			l0.2,0.2C-138.7,513.7-138.4,514.5-138.4,515.3z"/>
	</g>
</g>
</svg>
