<?xml version="1.0" encoding="utf-8"?>
<!-- Generator: Adobe Illustrator 19.0.1, SVG Export Plug-In . SVG Version: 6.00 Build 0)  -->
<svg version="1.1" id="Capa_1" xmlns="http://www.w3.org/2000/svg" xmlns:xlink="http://www.w3.org/1999/xlink" x="0px" y="0px"
	 viewBox="-272 396.2 49.7 49.7" style="enable-background:new -272 396.2 49.7 49.7;" xml:space="preserve">
<style type="text/css">
	.st0{fill:#4D4D4D;}
</style>
<g>
	<g>
		<g>
			<path class="st0" d="M-247.2,426c2.7,0,5-2.2,5-5c0-1.1-0.4-2.1-0.9-2.9c-0.9-1.3-2.4-2.1-4-2.1c-1.7,0-3.1,0.8-4,2.1
				c-0.6,0.8-0.9,1.8-0.9,2.9C-252.1,423.8-249.9,426-247.2,426z"/>
			<polygon class="st0" points="-236.3,415 -236.3,410.8 -236.3,410.2 -236.9,410.2 -241.1,410.2 -241.1,415 			"/>
			<path class="st0" d="M-247.2,396.2c-13.7,0-24.8,11.1-24.8,24.8c0,13.7,11.1,24.8,24.8,24.8c13.7,0,24.8-11.1,24.8-24.8
				C-222.3,407.4-233.5,396.2-247.2,396.2z M-233.1,418.2v11.6c0,3-2.4,5.5-5.5,5.5h-17.3c-3,0-5.5-2.4-5.5-5.5v-11.6v-5.8
				c0-3,2.4-5.5,5.5-5.5h17.3c3,0,5.5,2.4,5.5,5.5V418.2z"/>
			<path class="st0" d="M-239.5,421.1c0,4.3-3.5,7.7-7.7,7.7c-4.3,0-7.7-3.5-7.7-7.7c0-1,0.2-2,0.6-2.9h-4.2v11.6
				c0,1.5,1.2,2.7,2.7,2.7h17.3c1.5,0,2.7-1.2,2.7-2.7v-11.6h-4.2C-239.7,419.1-239.5,420-239.5,421.1z"/>
		</g>
	</g>
</g>
</svg>
