<?xml version="1.0" encoding="utf-8"?>
<!-- Generator: Adobe Illustrator 19.0.1, SVG Export Plug-In . SVG Version: 6.00 Build 0)  -->
<svg version="1.1" id="Capa_1" xmlns="http://www.w3.org/2000/svg" xmlns:xlink="http://www.w3.org/1999/xlink" x="0px" y="0px"
	 viewBox="-72 195.9 451 451" style="enable-background:new -72 195.9 451 451;" xml:space="preserve">
<style type="text/css">
	.st0{fill:#FFFFFF;stroke:#FFFFFF;stroke-miterlimit:10;}
</style>
<g>
	<path class="st0" d="M375,623.9L265.4,514.3c29.4-33.8,47.2-77.9,47.2-126.1c0-106.1-86.3-192.3-192.3-192.3
		c-106.1,0-192.3,86.3-192.3,192.3s86.3,192.3,192.3,192.3c48.2,0,92.3-17.8,126.1-47.2L356,642.9c2.6,2.6,6.1,4,9.5,4
		s6.9-1.3,9.5-4C380.3,637.7,380.3,629.1,375,623.9z M-45,388.2c0-91.2,74.2-165.3,165.3-165.3c91.2,0,165.3,74.2,165.3,165.3
		s-74.1,165.4-165.3,165.4C29.2,553.6-45,479.4-45,388.2z"/>
</g>
</svg>
