<?xml version="1.0" encoding="utf-8"?>
<!-- Generator: Adobe Illustrator 19.0.1, SVG Export Plug-In . SVG Version: 6.00 Build 0)  -->
<svg version="1.1" id="Слой_1" xmlns="http://www.w3.org/2000/svg" xmlns:xlink="http://www.w3.org/1999/xlink" x="0px" y="0px"
	 viewBox="0 0 409.6 169.3" style="enable-background:new 0 0 409.6 169.3;" xml:space="preserve">
<style type="text/css">
	.st0{fill:#808080;}
</style>
<g>
	<path class="st0" d="M0,34.3C1.6,27.4,3.6,20.7,8.1,15C16.2,4.8,27,0.1,39.8,0C108,0,176.3-0.1,244.6,0.1
		c23.6,0.1,39.6,16.7,39.7,40.4c0,9.9,0.1,19.7,0,29.6c0,3.9-2.3,6.4-5.5,6.6c-3.4,0.2-5.9-2.3-6.3-6.3c-0.1-1.2,0-2.4-0.1-3.6
		c0-9.2,0.1-18.4-0.2-27.6c-0.2-4.4-1.4-8.7-2.1-13c-0.5,0-0.9-0.1-1.4-0.1c-2,1.9-4,3.7-6,5.6c-7.3,7-14.8,13.9-21.9,21
		c-1.3,1.3-2.3,3.6-2.4,5.4c-0.2,25.3-0.2,50.7-0.1,76c0,7.4,1,8.3,8.2,8.3c6.7,0,13.3,0,20,0c5.4,0,5.8-0.4,5.8-6
		c0-11.5,0-22.9,0-34.4c0-1.7-0.3-3.9,0.6-5c1.4-1.8,3.8-3.9,5.7-3.8c1.9,0.1,5.2,2.7,5.2,4.2c0.3,15.3,0.6,30.6-0.2,45.9
		c-0.3,6.4-7.1,10.9-13.8,11.1c-6.1,0.2-12.3-0.1-18.4,0.1c-1.6,0.1-3.5,0.7-4.5,1.7c-9.4,8.8-20.6,13.2-33.4,13.2
		c-47.5,0.1-94.9,0.1-142.4,0c-12.8,0-24-4.3-33.4-13.1c-1.1-1-3-1.7-4.5-1.8c-4.8-0.2-9.6-0.4-14.4,0C9.3,155.1,3.2,151,0,142.3
		C0,106.3,0,70.3,0,34.3z M226.1,60.2C170.1,71,114.4,75.6,58.3,61.4c0,1.7,0,3.1,0,4.6c0,22.1,0,44.2,0,66.4c0,7.3-1,14.1-7.1,19.2
		c6.3,4.2,13.1,5.8,20.3,5.8c47.3,0.1,94.6,0.1,141.9,0c7,0,13.6-1.6,19.7-5.9c-5.5-4.6-6.9-10.4-6.9-17c0.1-23.1-0.1-46.1-0.1-69.2
		C226.1,63.6,226.1,62.1,226.1,60.2z M135.9,12.5c-0.7-0.2-1-0.4-1.2-0.4c-32.2,0-64.5-0.1-96.7,0c-5,0-9.9,1.2-14.3,4.8
		c9.8,9.4,19.4,18.6,29.1,27.7c1.8,1.7,4,3.1,6.3,3.9c24.7,8.2,50.3,9.5,76.1,9.7c0.2,0,0.4-0.3,0.6-0.5
		C135.9,42.6,135.9,27.6,135.9,12.5z M148.4,12.2c0,15.5,0,30.5,0,45.5c0.7,0.1,1.1,0.2,1.5,0.2c20.2-2.3,40.5-4.4,60.6-7.1
		c9.7-1.3,19.8-2.4,26.7-11.4c3.5-4.6,8.4-8.1,12.6-12.2c3.5-3.4,6.7-7.1,10.2-10.8c-4.8-3.5-10.5-4.3-16.4-4.3
		c-30.4,0-60.8,0-91.1,0C151.2,12,149.9,12.1,148.4,12.2z M14.9,25.1c-1.1,4.6-2.7,8.4-2.7,12.2C12,70.7,12.1,104.2,12,137.6
		c0,3.5,1.5,4.8,4.8,4.7c7.3-0.1,14.7,0,22,0c6.1,0,7.4-1.2,7.4-7.5c0.1-25.7,0-51.4,0-77.2c0-1.2-0.3-2.8-1.1-3.6
		C35.4,44.5,25.6,35.2,14.9,25.1z"/>
	<path class="st0" d="M409.6,83c0,12.1,0,24.3,0,36.4c0,11.8-6.8,18.7-18.6,18.7c-24.4,0.1-48.8,0.1-73.2,0
		c-11.6,0-18.5-6.9-18.5-18.4c-0.1-24.5-0.1-49.1,0-73.6c0-11.3,7-18.2,18.2-18.3c6.9-0.1,13.9-0.1,20.8,0c4.7,0,7.4,2.2,7.4,6
		c0,3.8-2.6,6-7.3,6c-6.9,0.1-13.9,0-20.8,0.1c-4.6,0-6.3,1.7-6.3,6.3c0,24.5,0,49.1,0,73.6c0,4.5,1.8,6.3,6.3,6.3
		c24.5,0,49.1,0,73.6,0c4.6,0,6.3-1.7,6.3-6.3c0-24.5,0-49.1,0-73.6c0-4.8-1.7-6.3-6.6-6.4c-7.2,0-14.4,0-21.6,0
		c-4.7,0-7.4-2.4-7.4-6c0-3.7,2.8-5.9,7.5-5.9c7.5,0,14.9-0.1,22.4,0c10.7,0.1,17.6,7.1,17.7,17.9C409.7,58.2,409.6,70.6,409.6,83z"
		/>
	<path class="st0" d="M358.8,103.1c-7.1-0.4-13.6-3.9-17.3-11.3c-1.3-2.6-2.7-3.6-5.4-3.3c-0.9,0.1-1.9-0.1-2.8-0.3
		c-3.4-0.7-5.2-2.9-5-6.2c0.3-3.3,2.4-5.7,5.8-5.3c4.4,0.5,6.3-1.5,8.4-5.2c4.8-8.5,15.5-11.8,24.7-8.3c9.1,3.5,14.5,13.2,12.8,23.2
		C378.4,95.7,369.6,103,358.8,103.1z M368.2,83c0.3-4.8-3.2-8.8-8-9.1c-4.6-0.3-8.8,3.4-9,8.1c-0.2,4.6,3.6,8.8,8.2,9
		C363.9,91.2,367.9,87.5,368.2,83z"/>
</g>
</svg>
