<?xml version="1.0" encoding="utf-8"?>
<!-- Generator: Adobe Illustrator 19.0.1, SVG Export Plug-In . SVG Version: 6.00 Build 0)  -->
<svg version="1.1" id="Слой_1" xmlns="http://www.w3.org/2000/svg" xmlns:xlink="http://www.w3.org/1999/xlink" x="0px" y="0px"
	 viewBox="0 0 409.6 204.8" style="enable-background:new 0 0 409.6 204.8;" xml:space="preserve">
<style type="text/css">
	.st0{fill:#D96B5A;}
</style>
<g>
	<path class="st0" d="M0,35.1c2.6-6.2,4.2-13,7.9-18.5C15.8,5.1,27.6,0,41.6,0C65.3,0,89,0,112.8,0c25.7,0,51.5,0,77.2,0
		c1.1,0,2.1,0,3.2,0c4,0.3,6.7,2.7,6.6,6.1C199.7,9.6,197,12,193,12c-15.9,0.1-31.7,0.1-47.6,0.1c-34.4,0-68.8,0-103.2,0
		c-6.4,0-12.4,1.1-18.1,5.2c4.7,4.5,9.3,8.8,13.9,13.2c5.5,5.2,10.9,10.6,16.6,15.6c1.5,1.3,3.9,2.4,5.9,2.4
		c88.3,0.1,176.5,0.1,264.8,0.1c8.1,0,16.3,0.1,24.4,0c1.5,0,3.3-0.4,4.3-1.3c10.3-9.6,20.5-19.4,30.8-29.2c0.3-0.3,0.4-0.7,0.6-1
		c-5.5-4-11.7-5-18.2-5c-47.2,0-94.4,0-141.6,0c-1.5,0-3,0.1-4.4-0.1c-3-0.5-4.8-2.3-5.1-5.3c-0.3-3,1.1-5.2,4.1-6.1
		c1.4-0.4,2.9-0.5,4.3-0.5c47.7,0,95.5-0.1,143.2,0c24.7,0,41.9,17.1,41.9,41.6c0.1,41.1,0.1,82.1,0.1,123.2
		c0,10.8-6.4,17.1-17.1,17.3c-2,0-4,0.1-6,0.1c-0.2,0-0.5,0.2-1.1,0.5c0,1.4,0,2.9,0,4.5c-0.4,10.8-7,17.3-17.8,17.3
		c-18.7,0.1-37.3,0-56,0c-10.8,0-21.6,0-32.4,0c-5.2,0-10.1-1.1-15.1-2.5c-4.2-1.2-9.4,2.1-14.3,2.4c-9,0.4-18.1,0.2-27.2,0.1
		c-3.4,0-6-1.5-6.5-5.2c-0.4-3.2,1.2-5.4,4.2-6.4c1.2-0.4,2.6-0.3,4-0.3c8.8,0,17.6,0,26.4,0c4.9,0,6.3-1.3,6.3-6
		c0-35.2,0-70.4,0-105.6c0-0.4-0.1-0.8-0.2-1.2c-1.8,3.3-3.2,6.8-5.4,9.8c-5.2,7.1-12.6,9.9-21.2,10c-16.9,0.1-33.9,0.2-50.8,0
		c-12.8-0.1-20.8-6.1-25.5-18.1c-0.2-0.4-0.3-0.8-1.1-1.1c0,4,0,7.9,0,11.9c0,31.1,0,62.1,0,93.2c0,6.4,0.9,7.3,7.5,7.3
		c10.8,0,21.6,0,32.4,0c3,0,5.5,0.8,6.7,3.9c1.6,4.2-1.3,8-6.5,8.1c-8.7,0.1-17.3,0.1-26,0c-6.6-0.1-13.4,1.2-19.4-3
		c-0.5-0.3-1.6,0.3-2.5,0.5c-3.7,0.8-7.4,2.4-11.1,2.4c-30.3,0.2-60.5,0.1-90.8,0.1c-12.3,0-18.6-6.4-18.8-18.8
		c0-1.1-0.1-2.1-0.2-3.7c-10.7,0.9-20.2-0.7-24-12.6C0,124.7,0,79.9,0,35.1z M36.5,182.2c-1,9.2,0,10.4,8.7,10.4
		c29.3,0,58.6,0,87.9,0c6.4,0,7.5-1.1,7.5-7.3c0-28.4,0-56.8,0-85.1c0-1.3-0.1-2.5-0.2-4.4c-6.8,4.1-13.9,3.8-20.9,3.8
		c-11.1,0-22.1,0.1-33.2,0c-8.6-0.1-17.3,1.1-25.7-3.7c0,2.1,0,3.5,0,5c0,18.1,0,36.2-0.1,54.4c0,3.6,0,7.2-0.4,10.8
		c-1.1,10.1-7.6,16-17.9,16.1C40.4,182.2,38.6,182.2,36.5,182.2z M268.9,95.7c0,31.1,0,61.4,0,91.6c0,4,1.7,5.3,6.3,5.3
		c15.7,0,31.5,0,47.2,0c14.9,0,29.9,0,44.8,0c3.4,0,5.8-1,6.1-4.7c0.1-1.8,0-3.6,0-5.8c-2.5,0-4.5,0-6.5,0
		c-9.7-0.2-16.3-6.2-17.4-15.8c-0.3-2.5-0.4-5-0.4-7.6c0-15.3,0-30.7,0-46c0-5.4,0-10.9,0-17c-7.8,4.5-15.9,3.7-23.8,3.8
		c-11.6,0-23.2,0-34.8,0C283.2,99.7,276,100,268.9,95.7z M394.8,26.4c-0.5,0-1,0-1.5,0C383,36.3,372.6,46.1,362.4,56
		c-0.8,0.8-1.3,2.3-1.3,3.5c0.1,34.5,0.2,69.1,0.4,103.6c0,5.8,1.3,7,7.1,7.1c7.9,0.1,15.7,0.1,23.6,0c4.3,0,5.4-1.2,5.4-5.5
		c0-41.5,0.1-82.9-0.1-124.4C397.4,35.7,395.7,31.1,394.8,26.4z M15.1,25.5c-1.1,5.3-2.9,9.7-2.9,14.2C12,81.3,12,122.9,12,164.5
		c0,4.5,1.2,5.7,5.7,5.7c7.5,0.1,14.9,0,22.4,0c6.9,0,8-1,8.1-7.8c0.2-34.1,0.3-68.2,0.3-102.4c0-1.7-1-3.8-2.3-5.1
		C37.2,46.2,28.1,37.7,19,29C18.1,28.1,17.1,27.3,15.1,25.5z M100.5,60.6c-4.3,0-8.5,0-12.8,0c-4.3,0-8.5,0-12.8,0
		c-8.3,0.1-14.1,5.4-14.2,13c-0.2,7.9,5.3,13.7,13.8,13.8c17.3,0.2,34.7,0.2,52,0.1c8.5-0.1,14.3-6,14.2-13.7
		c-0.2-7.7-6.1-13.2-14.6-13.2C117.5,60.6,109,60.6,100.5,60.6z M309.1,60.6c-8.7,0-17.3-0.1-26,0c-8.1,0.1-14,5.7-14.2,13.2
		c-0.1,7.4,5.6,13.5,13.8,13.6c17.5,0.2,34.9,0.2,52.4,0c8.5-0.1,14-6,13.8-13.8c-0.2-7.6-6-12.9-14.2-13
		C326.2,60.6,317.6,60.6,309.1,60.6z M205.2,60.6C205.2,60.6,205.2,60.6,205.2,60.6c-8.7,0-17.3,0-26,0c-8.3,0.1-14.1,5.4-14.4,12.9
		c-0.3,7.8,5.4,13.8,13.8,13.9c17.5,0.2,34.9,0.2,52.4,0c8.2-0.1,13.9-6,13.8-13.5c0-7.7-6-13.3-14.4-13.3
		C222,60.6,213.6,60.6,205.2,60.6z"/>
</g>
</svg>
