<?xml version="1.0" encoding="utf-8"?>
<!-- Generator: Adobe Illustrator 19.0.1, SVG Export Plug-In . SVG Version: 6.00 Build 0)  -->
<svg version="1.1" id="Слой_1" xmlns="http://www.w3.org/2000/svg" xmlns:xlink="http://www.w3.org/1999/xlink" x="0px" y="0px"
	 viewBox="0 0 409.6 402.2" style="enable-background:new 0 0 409.6 402.2;" xml:space="preserve">
<style type="text/css">
	.st0{fill:#8B8B8B;}
</style>
<g>
	<path class="st0" d="M336.8,0c6.3,1.6,12.9,2.5,18.8,4.9c33,13.1,50.3,37.9,53.7,72.8c0.2,2.1,0.2,4.3,0.2,6.4
		c0,102.5,0,205,0,307.5c0,11.8-6.2,17.9-18.1,18c-3.1,0-6.1,0-9.2,0c-4.3,0-8.6,0.5-12.8-0.2c-3.5-0.5-6.9-2.3-10.3-3.6
		c-1.9-0.7-3.8-1.9-5.7-2c-24.3-0.1-48.5-0.1-72.8-0.1c-13.4,0-20.3-6.8-20.3-20.1c-0.1-25.7,0-51.5,0-77.2c0-5,0.7-9.8,4.3-14.1
		c-4.2-4.8-4.4-10.6-4.3-16.6c0.1-7.1-0.1-14.1,0.1-21.2c0.1-5,3.7-7.9,7.7-6.6c3.3,1.1,4.2,3.8,4.2,7c0,7.7,0,15.5,0.1,23.2
		c0,6.5,1.6,8.1,8,8.1c23.1,0,46.1,0,69.2,0c1.2,0,2.3,0,3.7,0c0-4.4,0-8.5,0-12.6c-4.4,0-8.6,0.1-12.8,0
		c-11.4-0.2-18.2-6.8-18.3-18.1c-0.1-10-0.1-20,0-30c0.1-11.9,6.8-18.5,18.6-18.7c4.1,0,8.2,0,12.5,0c0-4.3,0-8.8,0-13.7
		c-1.4-0.1-2.8-0.2-4.2-0.2c-22.9,0-45.9,0-68.8,0c-6.2,0-7.9,1.6-7.9,7.8c0,7.2,0,14.4,0,21.6c0,1.3-0.1,2.7-0.2,4
		c-0.4,3.3-2.6,5.1-5.6,5.1c-3.3,0-5.9-1.8-5.9-5.3c-0.1-10.4-0.1-20.8,0.3-31.2c0.1-2.7,2-5.4,3.3-8.5c-4.6-5.2-3.9-12.2-3.9-18.9
		c0-14.1,0-14.2-14.2-14.2c-4,0-8,0.4-12-0.1c-3.6-0.4-7.1-1.9-10.7-2.8c-1.3-0.3-2.8-0.2-4.2,0.1c-3.5,0.8-6.8,2.6-10.3,2.7
		c-25.7,0.2-51.5,0.3-77.2-0.1c-4.3-0.1-8.5-3.4-12.7-3.5c-4.1,0-8.2,3.4-12.3,3.5c-25.6,0.3-51.2,0.2-76.8,0.1
		c-11.6,0-18.8-7.4-18.9-19.2c-0.1-24.4-0.1-48.8,0-73.2c0-2.7-0.3-4.6-3.2-5.9c-4.3-2-6.4-6.1-8.1-10.4c0-10.7,0-21.3,0-32
		C1.9,6.6,6,2.4,12,0c48.8,0,97.6,0,146.4,0c2.7,2,5,4.2,3.6,8c-1.4,3.7-4.5,4.2-7.9,4c-1.1,0-2.1,0-3.2,0c-44.3,0-88.5,0-132.8,0
		C13,12,12,13,12,18c0,6.7,0,13.3,0,20c0,6.9,0.6,7.5,7.5,7.5c102.3,0,204.5,0,306.8,0c23.4,0,39.2,15.7,39.2,39.1
		c0.1,61.1,0,122.1,0,183.2c0,41.2,0,82.4,0,123.6c0,5.4,0.9,6.2,6.3,6.2c6.3,0,12.5,0,18.8,0c6.2,0,6.9-0.7,6.9-6.8
		c0-32.4,0-64.8,0-97.2c0-69.9-0.2-139.7,0.1-209.6c0.1-39.8-31-72.9-72.4-72.1C279.2,12.7,233,12,186.9,12c-3.4,0-6.5-0.3-7.9-4
		c-1.5-3.8,0.9-5.9,3.4-8C233.9,0,285.3,0,336.8,0z M353.4,106.6c-2.7,2.2-5.9,4.7-8.8,7.4c-8.1,7.5-17.8,7.5-25.6-0.2
		c-7.2-7.1-14.4-14.3-21.5-21.5c-7.9-8-7.8-17.7-0.1-25.9c2.8-2.9,5.3-6.1,7.7-8.8c-25.1,0-51.1,0-77.1,0c-0.2,0.7-0.4,1.2-0.4,1.7
		c0,25.2-0.1,50.4,0,75.6c0,4.7,2.2,6.5,7.2,6.6c6.7,0.1,13.3-0.1,20,0.1c9.7,0.4,16.6,7,17.3,16.5c0.4,4.9,0.3,9.9,0.4,14.8
		c0.1,6.8,1.4,8.2,8.3,8.2c22.8,0,45.6,0,68.4,0c1.4,0,2.8-0.1,4.3-0.2C353.4,155.4,353.4,130.4,353.4,106.6z M23.2,57.7
		c0,1.5,0,2.6,0,3.6c0,24,0,48,0,72c0,6.5,1.7,8.2,8.3,8.2c24.4,0,48.8,0,73.2,0c7,0,8.7-1.7,8.7-8.7c0-23.7,0-47.5,0-71.2
		c0-1.3,0-2.6,0-4.1c-4.4,0-8.3,0-12.1,0c-0.6,0-1.3,0.2-1.4,0.2c0,4.6,0.1,9,0,13.4c-0.3,10.7-7.4,17.7-18,17.8
		c-10.3,0.1-20.5,0.1-30.8,0c-10.9-0.1-17.9-7-18.2-18c-0.1-4.3,0-8.7,0-13.1C30,57.7,26.9,57.7,23.2,57.7z M353.4,298.4
		c-1.6,0-2.9,0-4.2,0c-22.8,0-45.6,0-68.4,0c-6.8,0-8.4,1.6-8.4,8.5c0,25.5,0,50.9,0,76.4c0,6.9,1.6,8.5,8.4,8.5
		c22.8,0,45.6,0,68.4,0c1.3,0,2.6-0.1,4.1-0.2c0-4.8,0-9.4,0-13.9c-5.4,0-10.6,0.3-15.8-0.1c-8.3-0.5-14.9-7-15.2-15.3
		c-0.3-11.8-0.4-23.7,0-35.6c0.2-8.7,7.3-15.3,16.1-15.7c4.9-0.2,9.8,0,14.9,0C353.4,307.3,353.4,303.2,353.4,298.4z M125.5,57.7
		c0,25.5,0,50.6,0,75.6c0,6.6,1.6,8.2,8.3,8.2c24.4,0,48.8,0,73.2,0c6.9,0,8.5-1.5,8.5-8.4c0-23.7,0-47.4,0-71.2
		c0-1.4-0.1-2.8-0.2-4.2c-4.2,0-8,0-11.4,0c0,5.3,0.3,10.4-0.1,15.4c-0.7,8.9-7.8,15.4-16.8,15.5c-11.1,0.2-22.1,0.2-33.2,0
		c-8.6-0.1-15.4-6.1-16.4-14.6c-0.6-5.4-0.1-10.8-0.1-16.5C133.5,57.7,129.7,57.7,125.5,57.7z M170.5,76.8c3.1,0,6.1,0,9.2,0
		c12.4,0,12.7-0.3,12.3-12.8c-0.1-4.7-1.8-6.5-6.5-6.5c-8.1-0.1-16.2,0.1-24.3-0.1c-12.6-0.3-12.4,0.8-12.1,13.4
		c0.1,4.2,2,5.9,6.3,6C160.4,76.9,165.4,76.8,170.5,76.8z M66.4,76.8C66.4,76.8,66.4,76.8,66.4,76.8c3.1,0,6.1,0,9.2,0
		c12.4,0,12.7-0.4,12.3-12.8c-0.1-4.8-1.8-6.5-6.5-6.6c-8-0.1-16,0.2-23.9,0C44.5,57.1,44.6,58,45,70.8c0.1,4.2,2,5.9,6.3,6
		C56.3,76.9,61.4,76.8,66.4,76.8z M334.2,240C334.2,240,334.2,240,334.2,240c0,5.3-0.1,10.6,0,16c0.1,4.1,1.8,5.7,5.9,5.8
		c2.7,0.1,5.3,0.1,8,0c3.3-0.1,5.4-1.9,5.4-5.2c0.1-10.8,0.1-21.5,0-32.3c0-3.2-1.9-5.2-5.3-5.2c-2.8-0.1-5.6,0-8.4,0
		c-3.8,0-5.6,2.1-5.6,5.8C334.2,229.9,334.2,235,334.2,240z M353.6,344.7c0-2.9,0-5.9,0-8.8c0-13.1,0-13.2-13-12.9
		c-4.8,0.1-6.4,1.7-6.4,6.6c-0.1,8,0,16,0,23.9c0,12.4,0.5,12.9,13.1,12.3c4.5-0.2,6.2-1.9,6.3-6.4
		C353.6,354.6,353.6,349.6,353.6,344.7z M303.6,80c0.5,0.9,1.3,2.8,2.6,4.1c5.4,5.6,11.1,11.1,16.6,16.7c9,9,9.7,9,18.3-0.4
		c2.9-3.2,3.1-5.6,0-8.7c-7.2-7.3-14.4-14.6-21.8-21.7c-1.2-1.1-3.2-1.9-4.9-2C311.7,68,304,76.1,303.6,80z M325.3,57.7
		c9.2,9.5,18.6,19.2,28.2,29.1C354.3,67.9,342.1,55.9,325.3,57.7z"/>
</g>
</svg>
