<?xml version="1.0" encoding="utf-8"?>
<!-- Generator: Adobe Illustrator 19.0.1, SVG Export Plug-In . SVG Version: 6.00 Build 0)  -->
<svg version="1.1" id="Слой_1" xmlns="http://www.w3.org/2000/svg" xmlns:xlink="http://www.w3.org/1999/xlink" x="0px" y="0px"
	 viewBox="0 0 409.8 409.6" style="enable-background:new 0 0 409.8 409.6;" xml:space="preserve">
<style type="text/css">
	.st0{fill:#808080;}
</style>
<path class="st0" d="M409.6,27.3c0-3.1,0-6.1,0-9.2c0-11.8-6.2-18.1-18-18.1c-102.5,0-205,0-307.5,0c-2.1,0-4.3,0-6.4,0.2
	C42.8,3.7,17.9,21,4.9,54C2.5,59.9,1.6,66.4,0,72.6c0,0.1,0,0.2,0,0.3v153.7c0,0.3,0.1,0.7,0.4,1c2,2.3,4.1,4.4,7.7,3
	c3.7-1.4,4-4.5,4-7.9c0-46.1,0.6-92.3-0.2-138.4C11.1,43,44.2,11.8,84,12c69.9,0.2,139.7,0.1,209.6,0h97.2c6.2,0,6.8,0.7,6.8,6.9
	c0,6.3,0,12.5,0,18.8c0,5.4-0.9,6.3-6.2,6.3c-41.2,0-82.4,0-123.6,0c-61.1,0-122.1,0-183.2,0c-23.4,0-39.1,15.8-39.1,39.2
	c0,69,0,138.1,0,207.1v99.7c0,7-0.6,7.5-7.5,7.5c-6.7,0-13.3,0-20,0c-5,0-6-1-6-6.1c0-44.3,0-88.5,0-132.8c0-1.1,0-2.1,0-3.2
	c0.1-3.4-0.4-6.5-4-7.9c-3.6-1.3-5.8,0.7-7.7,3.2c-0.2,0.3-0.3,0.6-0.3,0.9v145.6c0,0.2,0,0.4,0.1,0.6c2.4,5.7,6.5,9.7,12.5,11.6
	c0.2,0,0.3,0.1,0.5,0.1h31.5c0.2,0,0.4,0,0.5-0.1c4.2-1.6,8.2-3.8,10.2-8c1.3-2.9,3.2-3.2,5.9-3.2c24.4,0.1,48.8,0.1,73.2,0
	c11.8,0,19.1-7.2,19.2-18.9c0.1-25.6,0.2-51.2-0.1-76.8c-0.1-4.1-3.5-8.2-3.5-12.3c0-4.3,3.4-8.5,3.5-12.7c0.4-25.7,0.3-51.5,0-77.2
	c0-3.4-1.8-6.8-2.6-10.3c-0.3-1.3-0.4-2.8-0.1-4.2c0.8-3.6,2.3-7,2.8-10.7c0.5-3.9,0.1-8,0.1-12c0-14.2,0.1-14.2,14.2-14.2
	c6.5,0,13.1,0.6,18.3-3.4c0.4-0.3,1-0.4,1.5-0.2c2.8,1.3,5.2,2.9,7.7,3c8.1,0.3,16.3,0.4,24.5,0.4c2.2,0,4.5,0,6.7,0
	c2.5,0,4.2-1.4,4.9-3.4c0.3-0.8,0.4-1.6,0.4-2.5c0-3.1-1.8-5.2-5.1-5.7c-1.3-0.2-2.7-0.2-4-0.2c-7.2,0-14.4,0-21.6,0
	c-6.2,0-7.8-1.7-7.8-7.9c0-22.9,0-45.9,0-68.8c0-0.9,0.1-1.9,0.1-2.8c0-0.8,0.7-1.4,1.5-1.4h10.9c0.8,0,1.5,0.7,1.5,1.5
	c0,3.8,0,7.4,0,11.1c0.1,11.8,6.8,18.5,18.7,18.6c10,0.1,20,0.1,30,0c11.3-0.1,17.9-6.9,18.1-18.3c0.1-3.7,0-7.5,0-11.4
	c0-0.8,0.7-1.5,1.5-1.5h9.7c0.8,0,1.5,0.7,1.5,1.5V60c0,23.1,0,46.1,0,69.2c0,6.4-1.6,7.9-8.1,8c-7.7,0-15.5,0-23.2,0.1
	c-3.2,0-5.9,0.9-7,4.2c-0.5,1.5-0.4,2.9,0.2,4.2c1,2.1,3.3,3.5,6.4,3.6c7.1,0.2,14.1,0,21.2,0.1c5.6,0.1,11-0.1,15.7-3.6
	c0.3-0.2,0.6-0.5,0.9-0.7c0.3,0.3,0.6,0.5,0.9,0.7c4,3,8.5,3.6,13.2,3.6c23,0,46,0,69,0c2.7,0,5.5,0,8.2,0c13.3,0,20.1-7,20.1-20.3
	c0-24.3,0-48.5,0.1-72.8c0-1.9,1.3-3.8,1.9-5.7c1.2-3.4,3-6.8,3.6-10.3C410.1,35.9,409.6,31.5,409.6,27.3z M100.4,68.5
	c9.4,8.6,9.4,9.3,0.4,18.3c-5.5,5.5-11,11.2-16.7,16.6c-1.2,1.1-2.7,1.8-3.7,2.3c-0.3,0.2-0.7,0.2-1,0.1c-4.1-1-11.4-8.1-11.3-10.8
	c0-1.7,0.8-3.7,2-4.9c7.1-7.4,14.4-14.6,21.7-21.8C94.8,65.4,97.1,65.5,100.4,68.5z M84.2,58.7C76,66.6,67.9,74.5,60,82.1
	C59,83,57.5,82.3,57.5,81c0-14.1,10-24.2,25.6-24.9C84.4,56.1,85.1,57.7,84.2,58.7z M57.5,248.5c0.2-8.1,0-16.2,0-24.3
	c0-4.7,1.8-6.4,6.5-6.5c12.5-0.3,12.8,0,12.8,12.3c0,3.1,0,6.1,0,9.2c0,5.1,0,10.1,0,15.2c-0.1,4.3-1.8,6.2-6,6.3
	C58.2,260.9,57.1,261.1,57.5,248.5z M57.5,352.1c0.2-8,0-16,0-23.9c0-4.7,1.8-6.4,6.6-6.5c12.4-0.4,12.8,0,12.8,12.3v9.2
	c0,0,0,0,0,0c0,5,0.1,10.1,0,15.2c-0.1,4.3-1.8,6.2-6,6.3C58,365,57.1,365.1,57.5,352.1z M141.5,378c0,6.6-1.7,8.3-8.2,8.3
	c-24,0-48,0-72,0h-2.2c-0.8,0-1.5-0.7-1.5-1.5v-6.8c0-0.8,0.7-1.5,1.5-1.5c4,0,7.8,0.1,11.7,0c11-0.2,17.9-7.2,18-18.2
	c0.1-10.3,0.1-20.5,0-30.8c-0.1-10.7-7.1-17.8-17.8-18c-4-0.1-7.9,0-12.1,0c-0.8,0-1.5-0.6-1.5-1.4c0,0,0,0,0,0c0-3.4,0-6.8,0-10.7
	c0-0.8,0.7-1.5,1.5-1.5h2.7c23.7,0,47.5,0,71.2,0c7.1,0,8.7,1.7,8.7,8.7C141.5,329.2,141.5,353.6,141.5,378z M141.5,275.8
	c0,6.7-1.6,8.3-8.2,8.3c-24.6,0-49.1,0-74.1,0c-0.8,0-1.5-0.7-1.5-1.5v-8.9c0-0.8,0.7-1.5,1.5-1.5c5.1,0.1,10.1,0.4,15-0.1
	c8.5-1,14.4-7.8,14.6-16.3c0.2-11.1,0.2-22.1,0-33.2c-0.1-9.1-6.6-16.1-15.5-16.8c-4.5-0.4-9.2-0.1-14-0.1c-0.8,0-1.5-0.7-1.5-1.5
	v-8.6c0-0.8,0.6-1.4,1.4-1.5c0.9-0.1,1.9-0.1,2.8-0.1c23.7,0,47.5,0,71.2,0c6.9,0,8.4,1.6,8.4,8.5
	C141.5,227,141.5,251.4,141.5,275.8z M172.9,137.2c-4.9,0.1-9.9,0-14.8,0.4c-9.6,0.8-16.2,7.6-16.5,17.3c-0.3,6.7-0.1,13.3-0.1,20
	c0,4.9-1.9,7.1-6.6,7.2c-25.2,0.1-50.4,0-75.6,0c-0.2,0-0.3,0-0.5-0.1c-0.7-0.1-1.2-0.7-1.2-1.4v-72.8c0-1.2,1.5-1.9,2.4-1.1
	c2.1,1.8,4.3,3.6,6.4,5.6c8.2,7.7,17.9,7.8,25.9-0.1c7.2-7.1,14.4-14.3,21.5-21.5c7.7-7.9,7.7-17.5,0.2-25.6c-2-2.1-3.8-4.4-5.4-6.4
	c-0.8-1-0.1-2.4,1.1-2.4h69.8c0.8,0,1.4,0.6,1.5,1.4c0.1,1,0.1,1.9,0.1,2.9c0,22.8,0,45.6,0,68.4
	C181.1,135.7,179.8,137.1,172.9,137.2z M261.8,69.5c-0.2,4.1-1.8,5.8-5.9,5.9c-5.3,0.1-10.6,0-16,0v0c-5,0-10.1,0-15.2,0
	c-3.7,0-5.7-1.8-5.8-5.6c0-2.8-0.1-5.6,0-8.4c0.1-3.4,2-5.3,5.3-5.3c10.8-0.1,21.5-0.1,32.3,0c3.3,0,5.1,2.1,5.2,5.4
	C261.9,64.2,261.9,66.8,261.8,69.5z M391.8,128.7c0,6.8-1.6,8.4-8.5,8.4c-25.5,0-50.9,0-76.4,0c-7,0-8.5-1.6-8.5-8.4
	c0-22.8,0-45.6,0-68.4v-2.7c0-0.8,0.7-1.5,1.5-1.5h11.2l16.9,0c0.1,0,0.1,0,0.2,0c1.9-0.2,4.4-0.2,7.7-0.2c2.9,0,5.9,0,8.8,0
	c2.9,0,5.8,0,8.7,0c2,0,4,0,6.1,0c0.8,0,1.5,0.1,2.2,0.2c0.1,0,0.2,0,0.3,0l15.8,0h12.5c0.8,0,1.4,0.6,1.5,1.4
	c0.1,0.9,0.1,1.8,0.1,2.7C391.8,83.2,391.8,106,391.8,128.7z"/>
<path class="st0" d="M292.1,138.5v101.6c0,0.7,0.5,1.3,1.3,1.4c3.7,0.6,7.4,3.3,11.1,3.4c25.6,0.3,51.2,0.2,76.8,0.1
	c11.6,0,18.8-7.4,18.9-19.2c0.1-24.4,0-48.8,0-73.2c0-2.1,0.2-3.7,1.7-5c0.7-0.6,2.7-29.6,2-30.2l-11.6,19.8
	c-0.3-0.2-0.6-0.3-0.9-0.3h-97.7C292.7,137,292.1,137.7,292.1,138.5z M323.4,155.6c0.1-4.8,1.8-6.5,6.5-6.6c8,0,16,0.2,23.9,0
	c13-0.4,12.8,0.5,12.5,13.3c-0.1,4.2-2,5.9-6.3,6c-5,0.1-10.1,0-15.2,0c0,0,0,0,0,0h-9.2C323.4,168.4,323,168,323.4,155.6z
	 M388.1,152.8c0,24,0,48,0,72c0,6.5-1.7,8.2-8.3,8.2c-24.4,0-48.8,0-73.2,0c-7,0-8.7-1.7-8.7-8.7c0-23.7,0-47.5,0-71.2v-2.7
	c0-0.8,0.7-1.5,1.5-1.5c3.8,0,7.3,0,10.7,0c0,0,0,0,0,0c0.8,0,1.4,0.7,1.4,1.5c0,4.2-0.1,8.1,0,12.1c0.3,10.7,7.4,17.7,18,17.8
	c10.3,0.1,20.5,0.1,30.8,0c11-0.1,18-7,18.2-18c0.1-3.9,0-7.7,0-11.7c0-0.8,0.7-1.5,1.5-1.5h6.7c0.8,0,1.5,0.7,1.5,1.5V152.8z"/>
<path class="st0" d="M311.1,56.2"/>
<polygon class="st0" points="377.7,56.3 361.8,56.3 328.2,56.2 311.1,56.2 334,56 361.2,56 "/>
<path class="st0" d="M361.9,191.1"/>
<line class="st0" x1="373.4" y1="200.8" x2="361.9" y2="191.1"/>
</svg>
