<?xml version="1.0" encoding="utf-8"?>
<!-- Generator: Adobe Illustrator 19.0.1, SVG Export Plug-In . SVG Version: 6.00 Build 0)  -->
<svg version="1.1" id="Capa_1" xmlns="http://www.w3.org/2000/svg" xmlns:xlink="http://www.w3.org/1999/xlink" x="0px" y="0px"
	 viewBox="-41 164.9 512 512" style="enable-background:new -41 164.9 512 512;" xml:space="preserve">
<style type="text/css">
	.st0{fill:#808080;}
</style>
<g>
	<g>
		<path class="st0" d="M426,224.9h-15v-15c0-24.8-20.2-45-45-45s-45,20.2-45,45v15h-60v-15c0-24.8-20.2-45-45-45s-45,20.2-45,45v15
			h-62v-15c0-24.8-20.2-45-45-45s-45,20.2-45,45v15H4c-24.8,0-45,20.2-45,45c0,2.2,0,356.2,0,362c0,24.8,20.2,45,45,45h422
			c24.8,0,45-20.2,45-45c0-2.8,0-357.1,0-362C471,245.1,450.8,224.9,426,224.9z M351,209.9c0-8.3,6.7-15,15-15s15,6.7,15,15v60
			c0,8.3-6.7,15-15,15s-15-6.7-15-15V209.9z M201,209.9c0-8.3,6.7-15,15-15s15,6.7,15,15v60c0,8.3-6.7,15-15,15s-15-6.7-15-15V209.9
			z M49,209.9c0-8.3,6.7-15,15-15s15,6.7,15,15v60c0,8.3-6.7,15-15,15s-15-6.7-15-15V209.9z M441,631.9c0,8.3-6.7,15-15,15H4
			c-8.3,0-15-6.7-15-15v-255h452V631.9z M441,346.9H-11v-77c0-8.3,6.7-15,15-15h15v15c0,24.8,20.2,45,45,45s45-20.2,45-45v-15h62v15
			c0,24.8,20.2,45,45,45s45-20.2,45-45v-15h60v15c0,24.8,20.2,45,45,45s45-20.2,45-45v-15h15c8.3,0,15,6.7,15,15V346.9z"/>
	</g>
</g>
<g>
	<g>
		<path class="st0" d="M396,406.9H34c-8.3,0-15,6.7-15,15v180c0,8.3,6.7,15,15,15h362c8.3,0,15-6.7,15-15v-180
			C411,413.6,404.3,406.9,396,406.9z M109,586.9H49v-60h60V586.9z M109,496.9H49v-60h60V496.9z M201,586.9h-62v-60h62V586.9z
			 M201,496.9h-62v-60h62V496.9z M291,586.9h-60v-60h60V586.9z M291,496.9h-60v-60h60V496.9z M381,586.9h-60v-60h60V586.9z
			 M381,496.9h-60v-60h60V496.9z"/>
	</g>
</g>
</svg>
