<?xml version="1.0" encoding="utf-8"?>
<!-- Generator: Adobe Illustrator 19.0.1, SVG Export Plug-In . SVG Version: 6.00 Build 0)  -->
<svg version="1.1" id="Capa_1" xmlns="http://www.w3.org/2000/svg" xmlns:xlink="http://www.w3.org/1999/xlink" x="0px" y="0px"
	 viewBox="-482 729.4 112.2 112.2" style="enable-background:new -482 729.4 112.2 112.2;" xml:space="preserve">
<style type="text/css">
	.st0{fill:#4D4D4D;}
</style>
<path class="st0" d="M-425.9,729.4c-31,0-56.1,25.1-56.1,56.1s25.1,56.1,56.1,56.1s56.1-25.1,56.1-56.1S-394.9,729.4-425.9,729.4z
	 M-393.8,810.1l-9.8,0.1c0,0-2.1,0.4-4.9-1.5c-3.7-2.5-7.2-9.1-9.9-8.2s-2.7,6.8-2.7,6.8s0,1.3-0.6,1.9c-0.7,0.7-2,0.9-2,0.9h-4.4
	c0,0-9.7,0.6-18.3-8.3c-9.3-9.7-17.6-29-17.6-29s-0.5-1.3,0-1.9c0.6-0.7,2.2-0.7,2.2-0.7l10.5-0.1c0,0,1,0.2,1.7,0.7
	c0.6,0.4,0.9,1.2,0.9,1.2s1.7,4.3,4,8.2c4.4,7.6,6.4,9.3,7.9,8.4c2.2-1.2,1.5-10.7,1.5-10.7s0-3.5-1.1-5c-0.9-1.2-2.5-1.5-3.3-1.6
	c-0.6-0.1,0.4-1.5,1.6-2.1c1.9-0.9,5.2-1,9.2-0.9c3.1,0,4,0.2,5.2,0.5c3.6,0.9,2.4,4.3,2.4,12.4c0,2.6-0.5,6.3,1.4,7.5
	c0.8,0.5,2.8,0.1,7.7-8.3c2.3-4,4.1-8.6,4.1-8.6s0.4-0.8,1-1.2s1.4-0.3,1.4-0.3l11.1-0.1c0,0,3.3-0.4,3.9,1.1
	c0.6,1.6-1.2,5.3-5.8,11.3c-7.4,9.9-8.3,9-2.1,14.7c5.9,5.5,7.1,8.1,7.3,8.5C-388.6,809.8-393.8,810.1-393.8,810.1z"/>
</svg>
